# xmcd
#
# Track frame offsets:
# 150
# 11812
# 22524
# 31346
# 40553
# 47903
# 58029
# 66627
# 75272
# 85444
# 103544
# 111655
# 128905
# 138060
# 149575
# 158017
# 168365
# 178778
# 185597
# 192631
# 205019
# 223114
# 231701
# 240440
# 256030
# 266806
#
# Disc length: 3690 seconds
#
#
# Revision: 0
# Processed by: cddbd v1.5.2PL0 Copyright (c) Steve Scherf et al.
# Submitted via: FreeRIP 2.943 
#
DISCID=770e681a
DTITLE=Landshuter Geig'n und Tanzlmusi - Landshuter Geig'n und Tanzlmusi
DYEAR=1900
DGENRE=Folklore
TTITLE0=Marsch
TTITLE1=Boarischer Bauer
TTITLE2=Hochzeitswalzer
TTITLE3=Sauschwanzl
TTITLE4=Mazurka
TTITLE5=Maus-Katz-Zwiefacher
TTITLE6=Schecher
TTITLE7=Oberpfälzer Zwiefacher
TTITLE8=Mazurka
TTITLE9=s'Suserl
TTITLE10=Boarisch-Polka
TTITLE11=Neubairischer
TTITLE12=Schottisch
TTITLE13=Rheinländer
TTITLE14=Schelln-Neuner
TTITLE15=Boarischer
TTITLE16=Böhmischer Wind
TTITLE17=Schottisch
TTITLE18=Schubkarrn-Zwiefacher
TTITLE19=Niederbayerischer Landler
TTITLE20=Sautanz
TTITLE21=Mazurka
TTITLE22=Schottisch-Schottisch
TTITLE23=Landler
TTITLE24=Stodlspitz
TTITLE25=Polka
EXTD=
EXTT0=
EXTT1=
EXTT2=
EXTT3=
EXTT4=
EXTT5=
EXTT6=
EXTT7=
EXTT8=
EXTT9=
EXTT10=
EXTT11=
EXTT12=
EXTT13=
EXTT14=
EXTT15=
EXTT16=
EXTT17=
EXTT18=
EXTT19=
EXTT20=
EXTT21=
EXTT22=
EXTT23=
EXTT24=
EXTT25=
PLAYORDER=
